<svg height="511pt" viewBox="-2 1 511 511.99989" width="511pt" xmlns="http://www.w3.org/2000/svg"><path d="m131.503906 400.582031v73.347657c0 16.8125-13.773437 30.496093-30.496094 30.496093h-3.109374c-16.765626 0-30.484376-13.71875-30.484376-30.496093v-73.347657c0-16.777343 13.71875-30.492187 30.484376-30.492187h3.109374c4.878907 0 9.507813 1.160156 13.605469 3.230468 9.992188 5.011719 16.890625 15.375 16.890625 27.261719zm0 0" fill="#4e5a61"/><path d="m437.65625 400.582031v73.347657c0 11.898437-6.898438 22.253906-16.886719 27.261718-6.996093 3.53125-12.667969 3.234375-16.707031 3.234375-16.765625 0-30.492188-13.71875-30.492188-30.496093v-73.347657c0-16.777343 13.726563-30.492187 30.492188-30.492187h3.109375c4.878906 0 9.496094 1.160156 13.597656 3.230468 9.988281 5.011719 16.886719 15.363282 16.886719 27.261719zm0 0" fill="#4e5a61"/><path d="m131.503906 400.582031v73.347657c0 11.890624-6.898437 22.253906-16.890625 27.261718-10-5-16.898437-15.363281-16.898437-27.261718v-73.347657c0-11.898437 6.898437-22.261719 16.898437-27.261719 9.992188 5.011719 16.890625 15.375 16.890625 27.261719zm0 0" fill="#5f6c75"/><path d="m437.65625 400.582031v73.347657c0 11.898437-6.898438 22.253906-16.886719 27.261718-10-5.007812-16.898437-15.363281-16.898437-27.261718v-73.347657c0-11.898437 6.898437-22.25 16.898437-27.261719 9.988281 5.011719 16.886719 15.363282 16.886719 27.261719zm0 0" fill="#5f6c75"/><path d="m67.414062 456.78125h64.085938v15.152344h-64.085938zm0 0" fill="#a2abb8"/><path d="m373.574219 456.78125h64.085937v15.152344h-64.085937zm0 0" fill="#a2abb8"/><g fill="#4e5a61"><path d="m35.394531 270.769531h67.039063c13.03125 0 23.695312-10.664062 23.695312-23.695312s-10.664062-23.691407-23.695312-23.691407h-67.039063c-13.03125 0-23.691406 10.660157-23.691406 23.691407s10.664063 23.695312 23.691406 23.695312zm0 0"/><path d="m402.636719 270.769531h67.039062c13.03125 0 23.695313-10.664062 23.695313-23.695312s-10.664063-23.691407-23.695313-23.691407h-67.039062c-13.03125 0-23.691407 10.660157-23.691407 23.691407s10.660157 23.695312 23.691407 23.695312zm0 0"/><path d="m333.195312 122.316406h-161.132812c-27.03125 0-51.320312 16.507813-61.277344 41.636719l-46.980468 118.601563h377.648437l-46.980469-118.601563c-9.957031-25.128906-34.246094-41.636719-61.277344-41.636719zm0 0"/><path d="m476.339844 332.332031v88.027344h-446.667969v-88.027344c0-37.460937 30.371094-67.84375 67.84375-67.84375h310.980469c37.472656 0 67.84375 30.382813 67.84375 67.84375zm0 0"/></g><path d="m476.339844 332.332031v88.027344h-416.367188v-88.027344c0-37.460937 30.371094-67.84375 67.84375-67.84375h280.679688c37.472656 0 67.84375 30.382813 67.84375 67.84375zm0 0" fill="#5f6c75"/><path d="m496.996094 398.015625v18.890625c0 4.804688-3.929688 8.734375-8.734375 8.734375h-471.449219c-4.808594 0-8.738281-3.929687-8.738281-8.734375v-18.890625c0-4.808594 3.929687-8.734375 8.738281-8.734375h471.449219c4.804687 0 8.734375 3.925781 8.734375 8.734375zm0 0" fill="#909ba6"/><path d="m496.996094 398.015625v9.28125h-464.277344c-4.804688 0-8.734375-3.925781-8.734375-8.734375v-9.28125h464.277344c4.804687 0 8.734375 3.925781 8.734375 8.734375zm0 0" fill="#a2abb8"/><path d="m67.414062 456.78125h30.300782v15.148438h-30.300782zm0 0" fill="#7e8b96"/><path d="m373.570312 456.78125h30.300782v15.148438h-30.300782zm0 0" fill="#7e8b96"/><path d="m373.949219 244.074219h-241.96875c-9.726563 0-16.382813-9.898438-12.804688-19.019531l12.96875-33.039063c8.007813-20.402344 24.785157-35.484375 44.933594-41.523437 6.335937-1.898438 13.011719-2.910157 19.839844-2.910157h112.09375c28.574219 0 54.25 17.617188 64.773437 44.433594l9.726563 24.785156 3.242187 8.253907c3.585938 9.121093-3.078125 19.019531-12.804687 19.019531zm0 0" fill="#c2eaf2"/><path d="m383.511719 216.800781h-214.160157c-9.726562 0-16.382812-9.898437-12.804687-19.019531l12.96875-33.039062c2-5.097657 4.554687-9.867188 7.5625-14.25 6.335937-1.898438 13.011719-2.910157 19.839844-2.910157h112.09375c28.574219 0 54.25 17.617188 64.773437 44.433594zm0 0" fill="#def4f8"/><path d="m140.925781 337.261719c0 11-6.394531 20.503906-15.65625 25-3.664062 1.777343-7.777343 2.777343-12.121093 2.777343-15.339844 0-27.773438-12.433593-27.773438-27.777343s12.433594-27.777344 27.773438-27.777344c4.34375 0 8.457031 1 12.121093 2.78125 9.261719 4.492187 15.65625 13.996094 15.65625 24.996094zm0 0" fill="#ffa90b"/><path d="m419.699219 337.261719c0 11-6.394531 20.503906-15.65625 25-3.667969 1.777343-7.777344 2.777343-12.121094 2.777343-15.34375 0-27.777344-12.433593-27.777344-27.777343s12.433594-27.777344 27.777344-27.777344c4.34375 0 8.453125 1 12.121094 2.78125 9.261719 4.492187 15.65625 13.996094 15.65625 24.996094zm0 0" fill="#ffa90b"/><path d="m140.925781 337.261719c0 11-6.394531 20.503906-15.65625 25-9.261719-4.496094-15.65625-14-15.65625-25s6.394531-20.503907 15.65625-24.996094c9.261719 4.492187 15.65625 13.996094 15.65625 24.996094zm0 0" fill="#ffc14f"/><path d="m419.699219 337.261719c0 11-6.394531 20.503906-15.65625 25-9.261719-4.496094-15.65625-14-15.65625-25s6.394531-20.503907 15.65625-24.996094c9.261719 4.492187 15.65625 13.996094 15.65625 24.996094zm0 0" fill="#ffc14f"/><path d="m328.792969 380.1875v54.542969c0 6.140625-4.96875 11.113281-11.109375 11.113281h-130.296875c-6.140625 0-11.109375-4.972656-11.109375-11.113281v-54.542969c0-6.140625 4.96875-11.109375 11.109375-11.109375h130.296875c6.140625 0 11.109375 4.96875 11.109375 11.109375zm0 0" fill="#c2eaf2"/><path d="m328.792969 380.1875v36.363281h-109.082031c-6.140626 0-11.113282-4.96875-11.113282-11.109375v-36.363281h109.085938c6.140625 0 11.109375 4.96875 11.109375 11.109375zm0 0" fill="#def4f8"/><path d="m492.460938 173.054688-44.5 13.230468c-7.910157 2.359375-11.019532 12-5.980469 18.609375l28.285156 37.101563c7.140625 9.367187-2.207031 22.367187-13.25 18.402344l-43.691406-15.691407c-7.777344-2.796875-15.910157 3.167969-15.679688 11.496094l.617188 22.445313.664062 24.355468c.324219 11.8125-14.816406 16.777344-21.433593 7.027344l-26.210938-38.621094c-4.671875-6.875-14.722656-6.875-19.382812 0l-26.21875 38.621094c-6.621094 9.75-21.75 4.785156-21.429688-7.027344l1.285156-46.800781c.226563-8.328125-7.902344-14.292969-15.683594-11.496094l-43.699218 15.691407c-11.03125 3.964843-20.390625-9.035157-13.246094-18.402344l28.292969-37.101563c5.039062-6.609375 1.929687-16.25-5.992188-18.609375l-44.488281-13.230468c-11.234375-3.335938-11.234375-19.398438 0-22.738282l44.488281-13.238281c7.921875-2.347656 11.03125-12.003906 5.992188-18.601563l-28.292969-37.101562c-7.144531-9.367188 2.214844-22.367188 13.246094-18.402344l33.503906 12.03125 10.195312 3.660156c7.78125 2.796876 15.914063-3.164062 15.683594-11.496093l-1.28125-46.800781c-.324218-11.824219 14.804688-16.785157 21.425782-7.027344l26.21875 38.621094c4.660156 6.875 14.714843 6.875 19.382812 0l26.210938-38.621094c6.617187-9.757813 21.757812-4.796875 21.433593 7.027344l-1.285156 46.800781c-.226563 8.332031 7.90625 14.292969 15.683594 11.5l43.691406-15.695313c11.042969-3.964844 20.390625 9.035156 13.246094 18.40625l-28.28125 37.097656c-5.039063 6.601563-1.929688 16.253907 5.980469 18.601563l44.5 13.238281c11.230468 3.339844 11.230468 19.402344 0 22.738282zm0 0" fill="#f44545"/><path d="m492.460938 173.054688-44.5 13.230468c-7.910157 2.359375-11.019532 12-5.980469 18.609375l28.285156 37.101563c7.140625 9.367187-2.207031 22.367187-13.25 18.402344l-43.691406-15.691407c-7.777344-2.796875-15.910157 3.167969-15.679688 11.496094l.617188 22.445313c-81.125-10.507813-143.691407-77.613282-143.691407-158.820313 0-14.695313 1.75-29.816406 5.085938-44.824219l10.195312 3.664063c7.78125 2.792969 15.910157-3.167969 15.683594-11.5l-1.285156-46.800781c-.320312-11.820313 14.808594-16.785157 21.429688-7.027344l26.21875 38.621094c4.660156 6.875 14.710937 6.875 19.382812 0l26.210938-38.621094c6.617187-9.757813 21.757812-4.792969 21.433593 7.027344l-1.285156 46.800781c-.226563 8.332031 7.90625 14.292969 15.683594 11.5l43.691406-15.695313c11.042969-3.964844 20.390625 9.035156 13.246094 18.40625l-28.28125 37.097656c-5.039063 6.601563-1.929688 16.253907 5.980469 18.601563l44.5 13.238281c11.230468 3.339844 11.230468 19.402344 0 22.738282zm0 0" fill="#fb5858"/><path d="m362.910156 95.859375v88.582031c0 6.75-3.136718 12.769532-8.035156 16.660156-3.644531 2.921876-8.265625 4.660157-13.285156 4.660157-11.777344 0-21.324219-9.546875-21.324219-21.320313v-88.582031c0-11.773437 9.546875-21.320313 21.324219-21.320313 3.050781 0 5.960937.644532 8.585937 1.808594 2.433594 1.0625 4.632813 2.585938 6.484375 4.441406 3.863282 3.847657 6.25 9.183594 6.25 15.070313zm0 0" fill="#ffc14f"/><path d="m356.621094 236.652344c0 3.242187-1.019532 6.25-2.777344 8.707031-1.152344 1.625-2.636719 3.019531-4.34375 4.078125-2.292969 1.425781-5.007812 2.253906-7.910156 2.253906-8.300782 0-15.039063-6.738281-15.039063-15.039062 0-8.304688 6.738281-15.039063 15.039063-15.039063 2.902344 0 5.617187.816407 7.910156 2.25.597656.375 1.171875.78125 1.707031 1.234375 3.304688 2.746094 5.414063 6.90625 5.414063 11.554688zm0 0" fill="#ffc14f"/><path d="m356.621094 236.652344c0 3.242187-1.019532 6.25-2.777344 8.707031-1.152344 1.625-2.636719 3.019531-4.34375 4.078125-4.273438-2.644531-7.121094-7.382812-7.121094-12.785156s2.847656-10.140625 7.121094-12.789063c.597656.375 1.171875.78125 1.707031 1.234375 3.304688 2.746094 5.414063 6.90625 5.414063 11.554688zm0 0" fill="#ffcd71"/><path d="m362.910156 95.859375v88.582031c0 6.75-3.136718 12.769532-8.035156 16.660156-7.492188-3.300781-12.734375-10.792968-12.734375-19.515624v-88.578126c0-6.753906 3.136719-12.773437 8.035156-16.660156 2.433594 1.0625 4.632813 2.585938 6.484375 4.441406 3.863282 3.847657 6.25 9.183594 6.25 15.070313zm0 0" fill="#ffcd71"/><path d="m488.261719 381.703125h-4.34375v-49.371094c0-21.230469-8.808594-40.339843-22.816407-53.984375h8.574219c17.242188 0 31.269531-14.03125 31.269531-31.273437 0-17.238281-14.027343-31.269531-31.269531-31.269531h-9.796875c-14.089844-18.332032-13.699218-17.796876-12.910156-20.140626.941406-2.96875-.535156-1.765624 47.269531-15.976562 18.464844-5.507812 18.375-31.808594 0-37.261719-47.925781-14.253906-46.328125-13.0625-47.269531-15.980469-1.007812-2.980468-1.421875-1.261718 28.949219-41.085937 11.605469-15.222656-3.527344-36.6875-21.828125-30.121094-47.078125 16.90625-45.078125 16.898438-47.460938 15.152344-2.527344-1.839844-1.871094-.050781-.484375-50.414063.535157-19.332031-24.414062-27.472656-35.261719-11.484374-28.210937 41.5625-26.585937 40.441406-29.632812 40.441406-2.992188 0-1.355469 1.214844-29.625-40.441406-10.820312-15.949219-35.789062-7.90625-35.273438 11.484374 1.375 50.25 2.0625 48.554688-.484374 50.414063-2.414063 1.765625-.492188 1.707031-47.460938-15.152344-18.300781-6.566406-33.433594 14.898438-21.828125 30.121094l22.402344 29.378906h-57.410157c-30.039062 0-56.59375 18.050781-67.652343 45.96875l-21.828125 55.097657h-46.691406c-17.242188 0-31.273438 14.03125-31.273438 31.269531 0 17.242187 14.03125 31.273437 31.273438 31.273437h9.523437c-14.070313 13.695313-22.828125 32.835938-22.828125 53.984375v49.371094h-5.28125c-9 0-16.3125 7.324219-16.3125 16.3125v18.890625c0 8.988281 7.3125 16.308594 16.3125 16.308594h43.027344v40.714844c0 20.992187 17.070312 38.070312 38.070312 38.070312h3.097656c20.988282 0 38.070313-17.078125 38.070313-38.070312v-40.714844h29.625c0 13.382812 9.472656 20.203125 18.683594 20.203125h6.636719c4.183593 0 7.574218-3.394531 7.574218-7.574219 0-4.183594-3.390625-7.578125-7.574218-7.578125h-6.636719c-1.949219 0-3.535157-1.585937-3.535157-3.535156v-54.542969c0-1.949219 1.585938-3.535156 3.535157-3.535156h130.296875c1.949218 0 3.535156 1.585937 3.535156 3.535156v54.542969c0 1.949219-1.585938 3.535156-3.535156 3.535156h-93.359375c-4.179688 0-7.574219 3.394531-7.574219 7.578125 0 4.179688 3.394531 7.574219 7.574219 7.574219h93.359375c9.152344 0 18.6875-6.738281 18.6875-20.203125h29.625v40.714844c0 20.992187 17.078125 38.070312 38.066406 38.070312h3.101562c21 0 38.066407-17.078125 38.066407-38.070312v-40.714844h43.03125c8.996093 0 16.308593-7.320313 16.308593-16.308594v-18.890625c0-8.988281-7.3125-16.3125-16.308593-16.3125zm-2.464844-134.628906c0 7.40625-5.019531 13.667969-11.847656 15.546875 6.492187-6.355469 8.664062-17.089844 1.96875-25.878906-1.515625-2-2.960938-3.886719-4.324219-5.675782 7.988281.949219 14.203125 7.765625 14.203125 16.007813zm-267.167969-170.90625c-2.605468-3.40625.738282-8.070313 4.65625-6.667969l43.683594 15.6875c12.796875 4.59375 26.179688-5.203125 25.816406-18.828125l-1.28125-46.796875c-.121094-4.300781 5.210938-6.039062 7.585938-2.566406l26.210937 38.617187c7.632813 11.28125 24.238281 11.300781 31.90625 0l26.210938-38.617187c2.375-3.492188 7.707031-1.714844 7.585937 2.566406l-1.285156 46.785156c-.382812 13.65625 13.039062 23.433594 25.808594 18.839844l43.683594-15.6875c3.929687-1.402344 7.253906 3.273438 4.65625 6.667969l-28.28125 37.097656c-8.261719 10.816406-3.109376 26.605469 9.847656 30.453125l44.484375 13.21875c4.039062 1.203125 4.039062 7.023438 0 8.222656l-44.484375 13.234375c-12.96875 3.855469-18.097656 19.625-9.847656 30.449219 8.761718 11.503906 27.5 36.066406 28.28125 37.089844 2.605468 3.414062-.746094 8.082031-4.65625 6.675781-22.785157-8.179687-34.898438-12.9375-42.390626-15.199219-7.738281-2.355468-10.566406-2.0625-15.152343-.164062-15.421875 6.464844-12.210938 18.222656-10.664063 65.292968.078125 2.917969-2.019531 3.90625-2.921875 4.199219-3.351562 1.082031-4.695312-1.675781-5.90625-3.464843l-21.179687-31.210938c-4.070313-5.988281-7.242188-12.070312-16.261719-13.734375 10.816406-1.667969 19.117187-11.050781 19.117187-22.332031 0-12.464844-10.140624-22.605469-22.601562-22.605469-12.464844 0-22.605469 10.140625-22.605469 22.605469 0 11.28125 8.300781 20.664062 19.117188 22.332031-9.070313 1.675781-12.25 7.847656-16.25 13.734375l-22.421875 33.039062c-2.375 3.476563-7.707032 1.738282-7.585938-2.5625 1.402344-51.171874 1.554688-48.351562.816406-51.566406-2.484374-11.210937-14.25-18.039062-25.351562-14.058594l-39.128906 14.058594c-5.230469 1.878906-6.785156 3.101563-9.382813 0-.585937-.886718-1.496093-2.855468.171875-5.039062 9.917969-13.007813 4.109375-5.402344 28.28125-37.089844 8.273438-10.847656 3.101563-26.613281-9.847656-30.449219l-44.484375-13.234375c-4.039063-1.199218-4.039063-7.019531 0-8.222656 10.699219-3.167969 2.09375-.613281 44.484375-13.21875 12.320312-3.6875 17.65625-18.171875 10.867188-28.980469-.644532-1.050781 1.292968 1.558594-29.300782-38.570312zm186.230469 179.167969c-.089844-2.988282 2.789063-5.160157 5.546875-4.160157 1.210938.4375 9.625 3.453125 12.199219 4.382813l1.152343 2.910156c-8.015624-1.664062-13.792968-1.554688-18.855468-1.554688zm7.261719 81.925781c0 11.140625-9.058594 20.203125-20.199219 20.203125-19.484375 0-27.664063-25.089844-11.828125-36.574219 6.496094 2.441406 13.496094 1.019531 18.414062-2.726563 7.917969 2.734376 13.613282 10.261719 13.613282 19.097657zm-70.871094-93.8125c-4.113281 0-7.457031-3.34375-7.457031-7.453125 0-4.113282 3.34375-7.453125 7.457031-7.453125 4.109375 0 7.453125 3.339843 7.453125 7.453125 0 4.109375-3.34375 7.453125-7.453125 7.453125zm-63.65625 13.464843h-21.472656c16.65625-5.980468 17.574218-6.839843 19.746094-5.191406 2.101562 1.484375 1.769531 3.664063 1.726562 5.191406zm-89.328125-77.226562c47.957031 14.25 46.300781 13.039062 47.269531 15.976562.972656 3 1.386719 1.28125-28.257812 40.160157h-75.632813c-4.363281 0-7.402343-4.476563-5.757812-8.675781l12.96875-33.039063c6.605469-16.835937 19.6875-29.515625 35.726562-35.605469-1.242187 9.273438 4.28125 18.382813 13.683594 21.183594zm-70.257813-13.40625c8.757813-22.097656 29.785157-36.390625 53.5625-36.390625h58.824219l-31.746093 9.445313c-36.097657 0-62.691407 20.695312-73.894532 49.238281l-12.96875 33.039062c-5.535156 14.109375 4.839844 29.359375 19.859375 29.359375h71.066407c.253906 2.03125.839843 4.042969 1.746093 5.941406-116.761719 0-112.417969-.585937-123.03125 1.726563 3.757813-9.496094 32.59375-82.277344 36.582031-92.359375zm-82.609374 96.914062c-8.890626 0-16.121094-7.230468-16.121094-16.121093 0-8.886719 7.230468-16.117188 16.121094-16.117188h40.691406l-12.765625 32.238281zm88.527343 210.734376c0 12.636718-10.28125 22.917968-22.917969 22.917968h-3.097656c-12.636718 0-22.917968-10.28125-22.917968-22.917968v-2h48.933593zm0-17.148438h-48.933593v-23.566406h48.933593zm44.777344-38.714844c-161.445313 0-153.050781.566406-153.050781-1.160156v-18.890625c0-1.707031-8.457032-1.160156 153.050781-1.160156zm148.980469-56.5625h-130.296875c-9.148438 0-18.683594 6.738282-18.683594 20.199219h-131.457031v-49.371094c0-33.207031 27.027344-60.269531 60.269531-60.269531h179.664063l-.828126 30.058594c-.515624 19.355468 24.445313 27.476562 35.273438 11.484375 28.238281-41.59375 26.632812-40.441407 29.625-40.441407 3.019531 0 1.644531-.777343 27.542969 37.382813-24.65625 21.394531-9.496094 62.066406 23.128906 62.066406 19.492187 0 35.351563-15.855469 35.351563-35.351562 0-14.484375-8.746094-26.957031-21.242188-32.410157.292969-2.519531.039062-2.289062-.707031-32.789062 4.71875 0 16.363281-.503906 29.9375 6.285156 19.757812 9.828125 33.503906 30.28125 33.503906 53.984375v49.371094h-132.394531c0-13.382813-9.476563-20.199219-18.6875-20.199219zm112.398437 112.425782c0 12.636718-10.273437 22.917968-22.917969 22.917968h-3.101562c-12.636719 0-22.917969-10.28125-22.917969-22.917968v-2h48.9375zm0-17.148438h-48.9375v-23.566406h48.9375zm-93.710937-38.714844v-21.210937c161.496094 0 153.050781-.546875 153.050781 1.160156v18.890625c0 1.726562 8.382813 1.160156-153.050781 1.160156zm0 0"/><path d="m113.148438 301.910156c-19.492188 0-35.351563 15.859375-35.351563 35.351563 0 19.496093 15.859375 35.351562 35.351563 35.351562 19.496093 0 35.351562-15.855469 35.351562-35.351562 0-19.492188-15.855469-35.351563-35.351562-35.351563zm0 55.554688c-11.140626 0-20.199219-9.0625-20.199219-20.203125s9.058593-20.199219 20.199219-20.199219c11.140624 0 20.203124 9.058594 20.203124 20.199219s-9.0625 20.203125-20.203124 20.203125zm0 0"/><path d="m363.007812 202.804688c2.753907-3.148438 2.433594-7.933594-.714843-10.6875-3.152344-2.753907-7.9375-2.433594-10.691407.71875-2.613281 2.988281-6.386718 4.699218-10.351562 4.703124-7.578125 0-13.742188-6.167968-13.742188-13.742187v-88.550781c0-7.578125 6.164063-13.742188 13.742188-13.742188s13.742188 6.164063 13.742188 13.742188v73.5625c0 4.183594 3.390624 7.574218 7.574218 7.574218s7.574219-3.390624 7.574219-7.574218v-73.5625c0-15.929688-12.960937-28.894532-28.890625-28.894532-15.933594 0-28.894531 12.964844-28.894531 28.894532v88.550781c0 26.664063 33.1875 38.984375 50.652343 19.007813zm0 0"/></svg>