<svg height="480pt" viewBox="0 -48 480 480" width="480pt" xmlns="http://www.w3.org/2000/svg"><path d="m416 344h-160l37.886719-242.472656c1.21875-7.785156 7.925781-13.527344 15.808593-13.527344h52.609376c7.882812 0 14.589843 5.742188 15.808593 13.527344zm0 0" fill="#e97424"/><path d="m216 344h240c8.835938 0 16 7.164062 16 16v16h-272v-16c0-8.835938 7.164062-16 16-16zm0 0" fill="#ffd782"/><path d="m268.359375 264.910156 130.199219-32.550781-12.03125-76.992187-105.160156 26.289062zm0 0" fill="#ffd782"/><path d="m296 304c-3.925781.003906-7.273438-2.84375-7.902344-6.71875s1.648438-7.636719 5.375-8.875l48-16c4.195313-1.394531 8.730469.875 10.128906 5.074219 1.394532 4.195312-.875 8.730469-5.074218 10.128906l-48 16c-.816406.265625-1.667969.394531-2.527344.390625zm0 0" fill="#ffd782"/><path d="m328 144c-3.925781.003906-7.273438-2.84375-7.902344-6.71875s1.648438-7.636719 5.375-8.875l24-8c4.195313-1.394531 8.730469.875 10.128906 5.074219 1.394532 4.195312-.875 8.730469-5.074218 10.128906l-24 8c-.816406.265625-1.667969.394531-2.527344.390625zm0 0" fill="#ffd782"/><path d="m40 256h128c17.671875 0 32 14.328125 32 32v16h-192v-16c0-17.671875 14.328125-32 32-32zm0 0" fill="#ffd782"/><path d="m104 112c30.929688 0 56 25.070312 56 56v88h-112v-88c0-30.929688 25.070312-56 56-56zm0 0" fill="#dd3e46"/><path d="m128 168c0 13.253906-10.746094 24-24 24s-24-10.746094-24-24 10.746094-24 24-24 24 10.746094 24 24zm0 0" fill="#ffd782"/><path d="m120 232h-32c-4.417969 0-8-3.582031-8-8s3.582031-8 8-8h32c4.417969 0 8 3.582031 8 8s-3.582031 8-8 8zm0 0" fill="#ffd782"/><g fill="#e97424"><path d="m104 72c-4.417969 0-8-3.582031-8-8v-56c0-4.417969 3.582031-8 8-8s8 3.582031 8 8v56c0 4.417969-3.582031 8-8 8zm0 0"/><path d="m56 88c-2.378906.003906-4.636719-1.050781-6.160156-2.878906l-40-48c-2.828125-3.398438-2.367188-8.445313 1.03125-11.273438 3.398437-2.828125 8.445312-2.367187 11.273437 1.03125l40 48c1.984375 2.386719 2.414063 5.703125 1.097657 8.515625-1.316407 2.808594-4.140626 4.605469-7.242188 4.605469zm0 0"/><path d="m152 88c-3.101562 0-5.925781-1.796875-7.242188-4.605469-1.316406-2.8125-.886718-6.128906 1.097657-8.515625l40-48c2.828125-3.398437 7.875-3.859375 11.273437-1.03125 3.398438 2.828125 3.859375 7.875 1.03125 11.273438l-40 48c-1.523437 1.828125-3.78125 2.882812-6.160156 2.878906zm0 0"/><path d="m472 384h-368c-4.417969 0-8-3.582031-8-8s3.582031-8 8-8h368c4.417969 0 8 3.582031 8 8s-3.582031 8-8 8zm0 0"/><path d="m72 384h-16c-4.417969 0-8-3.582031-8-8s3.582031-8 8-8h16c4.417969 0 8 3.582031 8 8s-3.582031 8-8 8zm0 0"/></g><path d="m224 312h-216c-4.417969 0-8-3.582031-8-8s3.582031-8 8-8h216c4.417969 0 8 3.582031 8 8s-3.582031 8-8 8zm0 0" fill="#dd3e46"/><path d="m456 336h-33.152344l-36.800781-235.703125c-1.789063-11.71875-11.890625-20.351563-23.742187-20.296875h-52.609376c-11.84375-.042969-21.933593 8.589844-23.71875 20.296875l-36.824218 235.703125h-33.152344c-13.253906 0-24 10.746094-24 24v8h-88c-4.417969 0-8 3.582031-8 8s3.582031 8 8 8h368c4.417969 0 8-3.582031 8-8v-16c0-13.253906-10.746094-24-24-24zm-154.207031-233.230469c.605469-3.898437 3.960937-6.769531 7.902343-6.769531h52.609376c3.941406 0 7.296874 2.871094 7.902343 6.769531l7.289063 46.605469-86.398438 21.601562zm-13.335938 85.367188 91.542969-22.890625 9.519531 61.152344-111.390625 27.824218zm-13.015625 83.246093 116.558594-29.144531 14.65625 93.761719h-141.3125zm188.558594 96.617188h-256v-8c0-4.417969 3.582031-8 8-8h240c4.417969 0 8 3.582031 8 8zm0 0"/><path d="m341.472656 272.40625-48 16c-4.199218 1.398438-6.46875 5.933594-5.074218 10.128906 1.398437 4.199219 5.933593 6.46875 10.128906 5.074219l48-16c4.199218-1.398437 6.46875-5.933594 5.074218-10.128906-1.398437-4.199219-5.933593-6.46875-10.128906-5.074219zm0 0"/><path d="m349.472656 120.40625-24 8c-4.199218 1.398438-6.46875 5.933594-5.074218 10.128906 1.398437 4.199219 5.933593 6.46875 10.128906 5.074219l24-8c4.199218-1.398437 6.46875-5.933594 5.074218-10.128906-1.398437-4.199219-5.933593-6.46875-10.128906-5.074219zm0 0"/><path d="m104 136c-17.671875 0-32 14.328125-32 32s14.328125 32 32 32 32-14.328125 32-32-14.328125-32-32-32zm0 48c-8.835938 0-16-7.164062-16-16s7.164062-16 16-16 16 7.164062 16 16-7.164062 16-16 16zm0 0"/><path d="m120 216h-32c-4.417969 0-8 3.582031-8 8s3.582031 8 8 8h32c4.417969 0 8-3.582031 8-8s-3.582031-8-8-8zm0 0"/><path d="m104 72c4.417969 0 8-3.582031 8-8v-56c0-4.417969-3.582031-8-8-8s-8 3.582031-8 8v56c0 4.417969 3.582031 8 8 8zm0 0"/><path d="m49.847656 85.121094c2.828125 3.398437 7.875 3.859375 11.273438 1.03125 3.398437-2.828125 3.859375-7.875 1.03125-11.273438l-40-48c-2.828125-3.398437-7.875-3.859375-11.273438-1.03125-3.398437 2.828125-3.859375 7.875-1.03125 11.273438zm0 0"/><path d="m152 88c2.378906.003906 4.636719-1.050781 6.160156-2.878906l40-48c2.828125-3.398438 2.367188-8.445313-1.03125-11.273438-3.398437-2.828125-8.445312-2.367187-11.273437 1.03125l-40 48c-1.984375 2.386719-2.414063 5.703125-1.097657 8.515625 1.316407 2.808594 4.140626 4.605469 7.242188 4.605469zm0 0"/><path d="m56 368c-4.417969 0-8 3.582031-8 8s3.582031 8 8 8h16c4.417969 0 8-3.582031 8-8s-3.582031-8-8-8zm0 0"/><path d="m8 312h216c4.417969 0 8-3.582031 8-8s-3.582031-8-8-8h-16v-8c-.027344-22.082031-17.917969-39.972656-40-40v-80c0-35.347656-28.652344-64-64-64s-64 28.652344-64 64v80c-22.082031.027344-39.9726562 17.917969-40 40v16c0 4.417969 3.582031 8 8 8zm48-144c0-26.507812 21.492188-48 48-48s48 21.492188 48 48v80h-96zm-40 120c0-13.253906 10.746094-24 24-24h128c13.253906 0 24 10.746094 24 24v8h-176zm0 0"/></svg>