<svg xmlns="http://www.w3.org/2000/svg" height="512pt" version="1.1" viewBox="-1 0 512 512.00017" width="512pt">
<g id="surface1">
<path d="M 510.109375 251.972656 C 510.421875 277.925781 506.851562 303.019531 499.921875 326.699219 C 469.300781 431.542969 373.054688 508.714844 258.15625 510.109375 C 153.984375 511.371094 63.632812 449.992188 22.957031 360.957031 C 8.628906 329.613281 0.464844 294.835938 0.0195312 258.15625 C -1.6875 117.300781 111.121094 1.726562 251.972656 0.0195312 C 392.824219 -1.6875 508.402344 111.121094 510.109375 251.972656 Z M 510.109375 251.972656 " style=" stroke:none;fill-rule:nonzero;fill:rgb(55.686275%,30.980392%,82.352941%);fill-opacity:1;" />
<path d="M 499.945312 328.574219 C 490.796875 359.917969 475.773438 388.78125 456.144531 413.890625 C 437.734375 437.441406 415.277344 457.6875 389.789062 473.570312 C 351.550781 497.402344 306.515625 511.390625 258.183594 511.980469 L 257.304688 511.988281 L 254.105469 512 C 210.117188 511.839844 168.699219 500.519531 132.574219 480.695312 C 103.050781 464.492188 77.058594 442.613281 56.09375 416.511719 C 42.960938 400.160156 31.804688 382.144531 22.976562 362.828125 C 8.648438 331.480469 0.488281 296.710938 0.0390625 260.023438 C 0.0390625 259.636719 0.03125 259.257812 0.03125 258.878906 L 0.03125 258.660156 C -0.277344 213.125 11.367188 170.273438 32.0625 133.089844 C 49.070312 161.984375 71.597656 187.203125 98.179688 207.335938 L 98.191406 207.335938 C 111.382812 217.332031 125.558594 226.058594 140.5625 233.363281 C 175.136719 250.191406 214.054688 259.425781 255.113281 258.929688 C 299.550781 258.390625 341.21875 246.515625 377.355469 226.070312 C 388.246094 219.921875 398.636719 212.988281 408.449219 205.355469 L 408.460938 205.355469 C 435.5625 184.273438 458.265625 157.871094 475.046875 127.71875 C 496.6875 164.484375 509.371094 207.160156 510.117188 252.820312 L 510.117188 253.277344 C 510.128906 253.46875 510.128906 253.65625 510.128906 253.847656 C 510.445312 279.800781 506.867188 304.890625 499.945312 328.574219 Z M 499.945312 328.574219 " style=" stroke:none;fill-rule:nonzero;fill:rgb(35.686275%,20.392157%,60%);fill-opacity:1;" />
<path d="M 456.144531 411.988281 L 456.144531 413.890625 C 437.734375 437.445312 415.277344 457.691406 389.789062 473.570312 C 351.550781 497.402344 306.515625 511.390625 258.183594 511.980469 L 258.0625 511.980469 L 257.304688 511.988281 L 254.105469 512 C 210.117188 511.839844 168.699219 500.523438 132.574219 480.695312 C 103.050781 464.496094 77.058594 442.613281 56.09375 416.511719 L 56.09375 414.65625 L 56.0625 406.714844 L 55.765625 313.96875 L 55.597656 263.253906 C 55.597656 262.664062 55.605469 262.066406 55.617188 261.480469 C 55.625 261.082031 55.644531 260.683594 55.664062 260.292969 C 55.726562 258.828125 55.855469 257.386719 56.035156 255.949219 C 56.054688 255.78125 56.074219 255.621094 56.09375 255.453125 C 56.113281 255.261719 56.144531 255.074219 56.175781 254.894531 C 56.214844 254.59375 56.253906 254.304688 56.304688 254.015625 C 56.34375 253.777344 56.382812 253.539062 56.421875 253.300781 C 56.621094 252.132812 56.863281 250.96875 57.128906 249.824219 C 57.320312 248.976562 57.539062 248.128906 57.777344 247.292969 C 57.917969 246.804688 58.066406 246.316406 58.214844 245.828125 C 58.386719 245.28125 58.566406 244.742188 58.753906 244.203125 C 59.132812 243.097656 59.542969 242.011719 59.988281 240.933594 C 60.089844 240.726562 60.167969 240.496094 60.269531 240.289062 C 60.546875 239.628906 60.835938 238.984375 61.15625 238.335938 C 61.394531 237.828125 61.632812 237.328125 61.882812 236.839844 C 61.882812 236.839844 61.882812 236.839844 61.882812 236.832031 C 62.183594 236.253906 62.492188 235.683594 62.800781 235.117188 C 62.839844 235.046875 62.878906 234.976562 62.917969 234.90625 C 63.585938 233.722656 64.292969 232.554688 65.042969 231.410156 C 65.421875 230.832031 65.808594 230.265625 66.207031 229.707031 C 66.417969 229.40625 66.625 229.117188 66.84375 228.820312 C 67.082031 228.492188 67.324219 228.171875 67.582031 227.855469 C 68.390625 226.796875 69.234375 225.761719 70.132812 224.765625 C 70.542969 224.296875 70.960938 223.839844 71.386719 223.390625 C 71.628906 223.132812 71.875 222.882812 72.117188 222.632812 L 72.683594 222.066406 C 73.003906 221.746094 73.320312 221.4375 73.648438 221.128906 C 74.078125 220.71875 74.515625 220.320312 74.953125 219.933594 C 75.054688 219.84375 75.144531 219.753906 75.242188 219.664062 C 75.664062 219.304688 76.089844 218.9375 76.519531 218.578125 C 76.570312 218.539062 76.617188 218.496094 76.667969 218.457031 C 77.066406 218.128906 77.476562 217.800781 77.894531 217.480469 C 78.3125 217.164062 78.730469 216.84375 79.148438 216.535156 C 79.5 216.265625 79.855469 216.015625 80.214844 215.769531 C 80.554688 215.527344 80.894531 215.289062 81.242188 215.058594 C 81.769531 214.710938 82.296875 214.363281 82.824219 214.035156 C 82.875 214.003906 82.925781 213.972656 82.976562 213.933594 C 83.472656 213.636719 83.972656 213.335938 84.480469 213.039062 C 84.917969 212.789062 85.355469 212.539062 85.804688 212.300781 C 86.152344 212.113281 86.503906 211.921875 86.859375 211.742188 C 87.300781 211.511719 87.738281 211.292969 88.175781 211.074219 C 89.011719 210.667969 89.871094 210.277344 90.726562 209.917969 C 91.15625 209.730469 91.59375 209.5625 92.023438 209.382812 C 92.898438 209.03125 93.777344 208.714844 94.671875 208.40625 C 95.25 208.214844 95.828125 208.027344 96.417969 207.847656 C 97.003906 207.667969 97.59375 207.5 98.179688 207.339844 L 98.191406 207.339844 C 98.488281 207.257812 98.789062 207.179688 99.085938 207.101562 C 99.386719 207.019531 99.695312 206.941406 99.992188 206.878906 C 100.273438 206.8125 100.550781 206.75 100.839844 206.691406 C 100.878906 206.671875 100.910156 206.660156 100.949219 206.660156 C 101.238281 206.601562 101.527344 206.542969 101.816406 206.480469 C 102.425781 206.351562 103.042969 206.242188 103.660156 206.132812 C 104.238281 206.042969 104.824219 205.953125 105.402344 205.875 C 105.53125 205.84375 105.671875 205.824219 105.8125 205.816406 C 106.339844 205.746094 106.867188 205.683594 107.394531 205.636719 C 107.703125 205.59375 108.023438 205.566406 108.34375 205.546875 C 108.660156 205.515625 108.980469 205.484375 109.300781 205.464844 C 109.9375 205.414062 110.574219 205.386719 111.210938 205.367188 C 111.472656 205.355469 111.738281 205.347656 112.007812 205.347656 C 112.386719 205.335938 112.765625 205.328125 113.144531 205.328125 L 258.0625 204.847656 L 337.03125 204.589844 L 397.730469 204.390625 C 398.1875 204.390625 398.648438 204.390625 399.105469 204.410156 C 399.355469 204.410156 399.601562 204.417969 399.863281 204.429688 C 399.882812 204.417969 399.902344 204.417969 399.921875 204.429688 C 400.242188 204.441406 400.558594 204.449219 400.878906 204.46875 C 401.375 204.488281 401.863281 204.519531 402.351562 204.558594 C 403.128906 204.617188 403.917969 204.6875 404.695312 204.789062 C 405.082031 204.828125 405.472656 204.878906 405.859375 204.9375 C 406.289062 204.996094 406.71875 205.058594 407.144531 205.128906 C 407.175781 205.128906 407.195312 205.128906 407.214844 205.136719 C 407.625 205.207031 408.042969 205.277344 408.449219 205.355469 L 408.460938 205.355469 C 408.980469 205.457031 409.488281 205.554688 409.996094 205.664062 C 410.441406 205.753906 410.890625 205.855469 411.328125 205.964844 C 411.660156 206.035156 411.988281 206.113281 412.304688 206.203125 C 412.773438 206.3125 413.234375 206.441406 413.679688 206.570312 C 415.355469 207.039062 417 207.589844 418.613281 208.214844 C 419.191406 208.433594 419.757812 208.664062 420.335938 208.902344 C 421.195312 209.273438 422.050781 209.648438 422.886719 210.058594 C 423.445312 210.328125 424.003906 210.605469 424.550781 210.894531 C 424.691406 210.957031 424.820312 211.035156 424.960938 211.105469 C 425.507812 211.394531 426.054688 211.691406 426.59375 212 C 429.214844 213.507812 431.695312 215.199219 434.035156 217.082031 C 434.304688 217.300781 434.574219 217.519531 434.832031 217.742188 C 435.164062 218.019531 435.5 218.296875 435.828125 218.585938 C 436.160156 218.867188 436.488281 219.164062 436.816406 219.464844 C 437.195312 219.804688 437.5625 220.152344 437.921875 220.5 C 438.269531 220.828125 438.609375 221.167969 438.957031 221.515625 C 439.1875 221.746094 439.417969 221.976562 439.636719 222.214844 C 440.324219 222.929688 440.992188 223.667969 441.628906 224.417969 C 442.046875 224.882812 442.445312 225.371094 442.835938 225.859375 C 442.882812 225.910156 442.933594 225.96875 442.972656 226.03125 C 443.363281 226.507812 443.742188 226.996094 444.109375 227.484375 C 444.386719 227.855469 444.65625 228.222656 444.925781 228.601562 C 445.015625 228.730469 445.105469 228.851562 445.195312 228.980469 C 445.226562 229.019531 445.246094 229.050781 445.265625 229.089844 C 445.5625 229.507812 445.851562 229.9375 446.132812 230.363281 C 446.390625 230.742188 446.640625 231.121094 446.871094 231.511719 C 447.207031 232.046875 447.535156 232.597656 447.855469 233.144531 C 449.449219 235.875 450.824219 238.753906 451.949219 241.753906 C 452.050781 242.011719 452.148438 242.269531 452.238281 242.53125 C 452.359375 242.839844 452.46875 243.148438 452.570312 243.464844 C 452.726562 243.90625 452.867188 244.351562 453.015625 244.8125 C 453.167969 245.289062 453.304688 245.769531 453.445312 246.257812 C 453.855469 247.671875 454.203125 249.105469 454.5 250.558594 C 454.660156 251.378906 454.808594 252.203125 454.941406 253.03125 C 455.007812 253.460938 455.078125 253.898438 455.128906 254.328125 C 455.1875 254.785156 455.25 255.242188 455.296875 255.710938 C 455.347656 256.167969 455.398438 256.636719 455.4375 257.097656 C 455.46875 257.464844 455.496094 257.832031 455.519531 258.210938 C 455.578125 258.910156 455.605469 259.605469 455.628906 260.3125 C 455.648438 260.851562 455.65625 261.390625 455.65625 261.9375 L 455.816406 312.652344 L 456.136719 410.253906 Z M 456.144531 411.988281 " style=" stroke:none;fill-rule:nonzero;fill:rgb(89.411765%,92.156863%,97.254902%);fill-opacity:1;" />
<path d="M 456.144531 411.988281 L 456.144531 413.890625 C 437.734375 437.445312 415.277344 457.691406 389.789062 473.570312 C 351.550781 497.402344 306.515625 511.390625 258.183594 511.980469 L 258.0625 511.980469 L 258.0625 313.300781 L 390.148438 312.871094 L 455.816406 312.652344 L 456.136719 410.253906 Z M 456.144531 411.988281 " style=" stroke:none;fill-rule:nonzero;fill:rgb(78.039216%,85.098039%,100%);fill-opacity:1;" />
<path d="M 132.574219 281.726562 L 132.574219 480.695312 C 103.050781 464.492188 77.058594 442.613281 56.09375 416.511719 L 56.09375 414.65625 L 56.0625 406.714844 L 55.765625 313.964844 L 55.675781 286.316406 L 55.65625 281.726562 Z M 132.574219 281.726562 " style=" stroke:none;fill-rule:nonzero;fill:rgb(100%,100%,100%);fill-opacity:1;" />
<path d="M 228.628906 434.582031 L 227.796875 474.28125 L 253.777344 474.828125 L 278.078125 475.332031 L 278.90625 435.632812 L 318.601562 436.464844 L 319.65625 386.1875 L 279.957031 385.355469 L 280.796875 345.660156 L 254.925781 345.121094 L 230.507812 344.605469 L 229.679688 384.304688 L 189.980469 383.464844 L 188.929688 433.753906 Z M 228.628906 434.582031 " style=" stroke:none;fill-rule:nonzero;fill:rgb(100%,20.392157%,27.058824%);fill-opacity:1;" />
<path d="M 228.628906 434.582031 L 227.796875 474.28125 L 253.777344 474.828125 L 254.925781 345.121094 L 230.507812 344.605469 L 229.679688 384.304688 L 189.980469 383.464844 L 188.929688 433.753906 Z M 228.628906 434.582031 " style=" stroke:none;fill-rule:nonzero;fill:rgb(86.666667%,7.058824%,39.607843%);fill-opacity:1;" />
<path d="M 367.464844 225.035156 L 341.558594 224.808594 L 342.050781 169.242188 C 342.167969 155.929688 331.433594 145.007812 318.125 144.890625 L 195.039062 143.800781 C 181.730469 143.683594 170.804688 154.417969 170.6875 167.726562 L 170.195312 223.292969 L 144.292969 223.0625 L 144.78125 167.496094 C 145.027344 139.902344 167.671875 117.652344 195.269531 117.898438 L 318.355469 118.984375 C 345.949219 119.230469 368.199219 141.878906 367.953125 169.472656 Z M 367.464844 225.035156 " style=" stroke:none;fill-rule:nonzero;fill:rgb(78.039216%,85.098039%,100%);fill-opacity:1;" />
<path d="M 455.816406 312.652344 L 390.148438 312.871094 L 258.0625 313.300781 L 55.765625 313.96875 L 55.597656 263.253906 C 55.597656 262.664062 55.605469 262.066406 55.617188 261.480469 C 55.625 261.082031 55.644531 260.683594 55.664062 260.292969 C 55.726562 258.828125 55.855469 257.386719 56.035156 255.949219 C 56.054688 255.78125 56.074219 255.621094 56.09375 255.453125 C 56.113281 255.261719 56.144531 255.074219 56.175781 254.894531 C 56.214844 254.59375 56.253906 254.304688 56.304688 254.015625 C 56.34375 253.777344 56.382812 253.539062 56.421875 253.300781 C 56.621094 252.125 56.851562 250.96875 57.128906 249.824219 C 57.320312 248.976562 57.539062 248.128906 57.777344 247.292969 C 57.917969 246.804688 58.066406 246.316406 58.214844 245.828125 C 58.386719 245.28125 58.566406 244.742188 58.753906 244.203125 C 59.132812 243.097656 59.542969 242.011719 59.988281 240.933594 C 60.089844 240.726562 60.167969 240.496094 60.269531 240.289062 C 60.546875 239.628906 60.835938 238.984375 61.15625 238.335938 C 61.394531 237.828125 61.632812 237.328125 61.882812 236.839844 C 61.882812 236.839844 61.882812 236.839844 61.882812 236.832031 C 62.183594 236.253906 62.492188 235.683594 62.800781 235.117188 C 62.839844 235.046875 62.878906 234.976562 62.917969 234.90625 C 63.585938 233.710938 64.292969 232.546875 65.042969 231.410156 C 65.421875 230.832031 65.808594 230.265625 66.207031 229.707031 C 66.417969 229.40625 66.625 229.117188 66.84375 228.820312 C 67.082031 228.492188 67.324219 228.171875 67.582031 227.855469 C 68.390625 226.796875 69.234375 225.761719 70.132812 224.765625 C 70.542969 224.296875 70.960938 223.839844 71.386719 223.390625 C 71.628906 223.132812 71.875 222.882812 72.117188 222.632812 L 72.683594 222.066406 C 73.003906 221.746094 73.320312 221.4375 73.648438 221.128906 C 74.078125 220.71875 74.515625 220.320312 74.953125 219.933594 C 75.054688 219.84375 75.144531 219.753906 75.242188 219.664062 C 75.664062 219.304688 76.089844 218.9375 76.519531 218.578125 C 76.570312 218.539062 76.617188 218.496094 76.667969 218.457031 C 77.066406 218.128906 77.476562 217.800781 77.894531 217.480469 C 78.3125 217.164062 78.730469 216.84375 79.148438 216.535156 C 79.5 216.265625 79.855469 216.015625 80.214844 215.769531 C 80.554688 215.527344 80.894531 215.289062 81.242188 215.058594 C 81.769531 214.710938 82.296875 214.363281 82.824219 214.035156 C 82.875 214.003906 82.925781 213.972656 82.976562 213.933594 C 83.472656 213.636719 83.972656 213.335938 84.480469 213.039062 C 84.917969 212.789062 85.355469 212.539062 85.804688 212.300781 C 86.152344 212.113281 86.503906 211.921875 86.859375 211.742188 C 87.300781 211.511719 87.738281 211.292969 88.175781 211.074219 C 89.011719 210.667969 89.871094 210.289062 90.726562 209.917969 C 91.15625 209.730469 91.59375 209.5625 92.023438 209.382812 C 92.898438 209.03125 93.777344 208.714844 94.671875 208.40625 C 95.25 208.214844 95.828125 208.027344 96.417969 207.847656 C 97.003906 207.667969 97.59375 207.5 98.179688 207.339844 L 98.191406 207.339844 C 98.488281 207.257812 98.789062 207.179688 99.085938 207.101562 C 99.386719 207.019531 99.695312 206.941406 99.992188 206.878906 C 100.273438 206.8125 100.550781 206.75 100.839844 206.691406 C 100.878906 206.671875 100.910156 206.660156 100.949219 206.660156 C 101.238281 206.601562 101.527344 206.542969 101.816406 206.480469 C 102.425781 206.351562 103.042969 206.234375 103.660156 206.132812 C 104.238281 206.042969 104.824219 205.953125 105.402344 205.875 C 105.53125 205.84375 105.671875 205.824219 105.8125 205.816406 C 106.339844 205.746094 106.867188 205.683594 107.394531 205.636719 C 107.703125 205.59375 108.023438 205.566406 108.34375 205.546875 C 108.660156 205.515625 108.980469 205.484375 109.300781 205.464844 C 109.9375 205.414062 110.574219 205.386719 111.210938 205.367188 C 111.472656 205.355469 111.738281 205.347656 112.007812 205.347656 C 112.386719 205.335938 112.765625 205.328125 113.144531 205.328125 L 258.0625 204.847656 L 337.03125 204.589844 L 397.730469 204.390625 C 398.1875 204.390625 398.648438 204.390625 399.105469 204.410156 C 399.355469 204.410156 399.601562 204.417969 399.863281 204.429688 C 399.882812 204.417969 399.902344 204.417969 399.921875 204.429688 C 400.242188 204.441406 400.558594 204.449219 400.878906 204.46875 C 401.375 204.488281 401.863281 204.519531 402.351562 204.558594 C 403.128906 204.617188 403.917969 204.6875 404.695312 204.789062 C 405.082031 204.828125 405.472656 204.878906 405.859375 204.9375 C 406.289062 204.996094 406.71875 205.058594 407.144531 205.128906 C 407.175781 205.128906 407.195312 205.128906 407.214844 205.136719 C 407.625 205.207031 408.042969 205.277344 408.449219 205.355469 L 408.460938 205.355469 C 408.980469 205.457031 409.488281 205.554688 409.996094 205.664062 C 410.441406 205.753906 410.890625 205.855469 411.328125 205.964844 C 411.660156 206.035156 411.988281 206.113281 412.304688 206.203125 C 412.773438 206.3125 413.234375 206.441406 413.679688 206.570312 C 415.355469 207.039062 417 207.589844 418.613281 208.214844 C 419.191406 208.433594 419.757812 208.664062 420.335938 208.902344 C 421.203125 209.273438 422.050781 209.648438 422.886719 210.058594 C 423.445312 210.328125 424.003906 210.605469 424.550781 210.894531 C 424.691406 210.957031 424.820312 211.035156 424.960938 211.105469 C 425.507812 211.394531 426.054688 211.691406 426.59375 212 C 429.214844 213.507812 431.695312 215.199219 434.035156 217.082031 C 434.304688 217.300781 434.574219 217.519531 434.832031 217.742188 C 435.164062 218.019531 435.5 218.296875 435.828125 218.585938 C 436.160156 218.867188 436.488281 219.164062 436.816406 219.464844 C 437.195312 219.804688 437.5625 220.152344 437.921875 220.5 C 438.269531 220.828125 438.609375 221.167969 438.957031 221.515625 C 439.1875 221.746094 439.417969 221.976562 439.636719 222.214844 C 440.324219 222.929688 440.992188 223.667969 441.628906 224.417969 C 442.046875 224.882812 442.445312 225.371094 442.835938 225.859375 C 442.882812 225.910156 442.933594 225.96875 442.972656 226.03125 C 443.363281 226.507812 443.742188 226.996094 444.109375 227.484375 C 444.386719 227.855469 444.65625 228.222656 444.925781 228.601562 C 445.015625 228.730469 445.105469 228.851562 445.195312 228.980469 C 445.226562 229.019531 445.246094 229.050781 445.265625 229.089844 C 445.5625 229.507812 445.851562 229.9375 446.132812 230.363281 C 446.390625 230.742188 446.640625 231.121094 446.871094 231.511719 C 447.207031 232.046875 447.535156 232.597656 447.855469 233.144531 C 449.449219 235.875 450.824219 238.753906 451.949219 241.753906 C 452.050781 242.011719 452.148438 242.269531 452.238281 242.53125 C 452.359375 242.839844 452.46875 243.148438 452.570312 243.464844 C 452.726562 243.90625 452.867188 244.351562 453.015625 244.8125 C 453.167969 245.289062 453.304688 245.769531 453.445312 246.257812 C 453.855469 247.671875 454.203125 249.105469 454.5 250.558594 C 454.660156 251.378906 454.808594 252.203125 454.941406 253.03125 C 455.007812 253.460938 455.078125 253.898438 455.128906 254.328125 C 455.1875 254.785156 455.25 255.242188 455.296875 255.710938 C 455.347656 256.167969 455.398438 256.636719 455.4375 257.097656 C 455.46875 257.464844 455.496094 257.832031 455.519531 258.210938 C 455.578125 258.910156 455.605469 259.605469 455.628906 260.3125 C 455.648438 260.851562 455.65625 261.390625 455.65625 261.9375 Z M 455.816406 312.652344 " style=" stroke:none;fill-rule:nonzero;fill:rgb(89.411765%,92.156863%,97.254902%);fill-opacity:1;" />
<path d="M 455.816406 312.652344 L 390.148438 312.871094 L 258.0625 313.300781 L 258.0625 204.847656 L 337.03125 204.589844 L 397.730469 204.390625 C 398.1875 204.390625 398.648438 204.390625 399.105469 204.410156 C 399.355469 204.410156 399.601562 204.417969 399.863281 204.429688 C 399.882812 204.417969 399.902344 204.417969 399.921875 204.429688 C 400.242188 204.441406 400.558594 204.449219 400.878906 204.46875 C 401.375 204.488281 401.863281 204.519531 402.351562 204.558594 C 403.128906 204.617188 403.917969 204.6875 404.695312 204.789062 C 405.082031 204.828125 405.472656 204.878906 405.859375 204.9375 C 406.289062 204.996094 406.71875 205.058594 407.144531 205.128906 C 407.175781 205.128906 407.195312 205.128906 407.214844 205.136719 C 407.625 205.207031 408.042969 205.277344 408.449219 205.355469 L 408.460938 205.355469 C 408.980469 205.457031 409.488281 205.554688 409.996094 205.664062 C 410.441406 205.753906 410.890625 205.855469 411.328125 205.964844 C 411.660156 206.035156 411.988281 206.113281 412.304688 206.203125 C 412.773438 206.3125 413.234375 206.441406 413.679688 206.570312 C 415.355469 207.039062 417 207.589844 418.613281 208.214844 C 419.191406 208.433594 419.757812 208.664062 420.335938 208.902344 C 421.203125 209.273438 422.050781 209.648438 422.886719 210.058594 C 423.445312 210.328125 424.003906 210.605469 424.550781 210.894531 C 424.691406 210.957031 424.820312 211.035156 424.960938 211.105469 C 425.507812 211.394531 426.054688 211.691406 426.59375 212 C 429.214844 213.507812 431.695312 215.199219 434.035156 217.082031 C 434.304688 217.300781 434.574219 217.519531 434.832031 217.742188 C 435.164062 218.019531 435.5 218.296875 435.828125 218.585938 C 436.160156 218.867188 436.488281 219.164062 436.816406 219.464844 C 437.195312 219.804688 437.5625 220.152344 437.921875 220.5 C 438.269531 220.828125 438.609375 221.167969 438.957031 221.515625 C 439.1875 221.746094 439.417969 221.976562 439.636719 222.214844 C 440.324219 222.929688 440.992188 223.667969 441.628906 224.417969 C 442.046875 224.882812 442.445312 225.371094 442.835938 225.859375 C 442.882812 225.910156 442.933594 225.96875 442.972656 226.03125 C 443.363281 226.507812 443.742188 226.996094 444.109375 227.484375 C 444.386719 227.855469 444.65625 228.222656 444.925781 228.601562 C 445.015625 228.730469 445.105469 228.851562 445.195312 228.980469 C 445.226562 229.019531 445.246094 229.050781 445.265625 229.089844 C 445.5625 229.507812 445.851562 229.9375 446.132812 230.363281 C 446.390625 230.742188 446.640625 231.121094 446.871094 231.511719 C 447.207031 232.046875 447.535156 232.597656 447.855469 233.144531 C 449.449219 235.875 450.824219 238.753906 451.949219 241.753906 C 452.050781 242.011719 452.148438 242.269531 452.238281 242.53125 C 452.359375 242.839844 452.46875 243.148438 452.570312 243.464844 C 452.726562 243.90625 452.867188 244.351562 453.015625 244.8125 C 453.167969 245.289062 453.304688 245.769531 453.445312 246.257812 C 453.855469 247.671875 454.203125 249.105469 454.5 250.558594 C 454.660156 251.378906 454.808594 252.203125 454.941406 253.03125 C 455.007812 253.460938 455.078125 253.898438 455.128906 254.328125 C 455.1875 254.785156 455.25 255.242188 455.296875 255.710938 C 455.347656 256.167969 455.398438 256.636719 455.4375 257.097656 C 455.46875 257.464844 455.496094 257.832031 455.519531 258.210938 C 455.578125 258.910156 455.605469 259.605469 455.628906 260.3125 C 455.648438 260.851562 455.65625 261.390625 455.65625 261.9375 Z M 455.816406 312.652344 " style=" stroke:none;fill-rule:nonzero;fill:rgb(78.039216%,85.098039%,100%);fill-opacity:1;" />
<path d="M 132.503906 262.992188 L 132.671875 313.71875 L 55.765625 313.964844 L 55.597656 263.253906 C 55.496094 231.359375 81.261719 205.425781 113.144531 205.324219 L 190.050781 205.074219 C 158.167969 205.175781 132.402344 231.101562 132.503906 262.992188 Z M 132.503906 262.992188 " style=" stroke:none;fill-rule:nonzero;fill:rgb(100%,100%,100%);fill-opacity:1;" />
<path d="M 55.683594 286.316406 L 455.738281 284.996094 L 455.832031 312.648438 L 55.773438 313.96875 Z M 55.683594 286.316406 " style=" stroke:none;fill-rule:nonzero;fill:rgb(17.254902%,23.137255%,33.72549%);fill-opacity:1;" />
</g>
</svg>