<svg height="512pt" viewBox="0 0 512 512" width="512pt" xmlns="http://www.w3.org/2000/svg"><path d="m120 256v90c0 8.402344-6.597656 15-15 15s-15-6.597656-15-15v-90c0-8.402344 6.597656-15 15-15s15 6.597656 15 15zm0 0" fill="#c5d3dd"/><path d="m120 256v90c0 8.402344-6.597656 15-15 15v-120c8.402344 0 15 6.597656 15 15zm0 0" fill="#9facba"/><path d="m45 91h-30c-8.289062 0-15-6.710938-15-15s6.710938-15 15-15h30c8.289062 0 15 6.710938 15 15s-6.710938 15-15 15zm0 0" fill="#537983"/><path d="m45 151h-30c-8.289062 0-15-6.710938-15-15s6.710938-15 15-15h30c8.289062 0 15 6.710938 15 15s-6.710938 15-15 15zm0 0" fill="#537983"/><path d="m45 211h-30c-8.289062 0-15-6.710938-15-15s6.710938-15 15-15h30c8.289062 0 15 6.710938 15 15s-6.710938 15-15 15zm0 0" fill="#537983"/><g fill="#3e5959"><path d="m195 91h-30c-8.289062 0-15-6.710938-15-15s6.710938-15 15-15h30c8.289062 0 15 6.710938 15 15s-6.710938 15-15 15zm0 0"/><path d="m195 151h-30c-8.289062 0-15-6.710938-15-15s6.710938-15 15-15h30c8.289062 0 15 6.710938 15 15s-6.710938 15-15 15zm0 0"/><path d="m195 211h-30c-8.289062 0-15-6.710938-15-15s6.710938-15 15-15h30c8.289062 0 15 6.710938 15 15s-6.710938 15-15 15zm0 0"/><path d="m165 0h-120c-8.402344 0-15 6.597656-15 15v241c0 8.402344 6.597656 15 15 15h120c8.402344 0 15-6.597656 15-15v-241c0-8.402344-6.597656-15-15-15zm0 0"/></g><path d="m180 15v241c0 8.402344-6.597656 15-15 15h-60v-271h60c8.402344 0 15 6.597656 15 15zm0 0" fill="#293939"/><path d="m120 76c0 8.402344-6.597656 15-15 15s-15-6.597656-15-15 6.597656-15 15-15 15 6.597656 15 15zm0 0" fill="#ff637b"/><path d="m120 136c0 8.402344-6.597656 15-15 15s-15-6.597656-15-15 6.597656-15 15-15 15 6.597656 15 15zm0 0" fill="#ffda2d"/><path d="m120 196c0 8.402344-6.597656 15-15 15s-15-6.597656-15-15 6.597656-15 15-15 15 6.597656 15 15zm0 0" fill="#7fe881"/><path d="m135 346v151h-60v-151c0-8.402344 6.597656-15 15-15h30c8.402344 0 15 6.597656 15 15zm0 0" fill="#3e5959"/><path d="m482 211c0 16.5-13.5 30-30 30s-30-13.5-30-30 13.5-30 30-30 30 13.5 30 30zm0 0" fill="#ff637b"/><path d="m512 301v60c0 8.402344-6.597656 15-15 15h-15v76c0 16.5-13.5 30-30 30s-30-13.5-30-30v-76h-15c-8.402344 0-15-6.597656-15-15v-60c0-33 27-60 60-60s60 27 60 60zm0 0" fill="#ff637b"/><path d="m452 241v-60c16.5 0 30 13.5 30 30s-13.5 30-30 30zm0 0" fill="#e63950"/><path d="m512 301v60c0 8.402344-6.597656 15-15 15h-15v76c0 16.5-13.5 30-30 30v-241c33 0 60 27 60 60zm0 0" fill="#e63950"/><path d="m331 211c0 16.5-13.5 30-30 30s-30-13.5-30-30 13.5-30 30-30 30 13.5 30 30zm0 0" fill="#ff637b"/><path d="m361 301v60c0 8.402344-6.597656 15-15 15h-15v76c0 16.5-13.5 30-30 30s-30-13.5-30-30v-76h-15c-8.402344 0-15-6.597656-15-15v-60c0-33 27-60 60-60s60 27 60 60zm0 0" fill="#ff637b"/><path d="m301 241v-60c16.5 0 30 13.5 30 30s-13.5 30-30 30zm0 0" fill="#e63950"/><path d="m361 301v60c0 8.402344-6.597656 15-15 15h-15v76c0 16.5-13.5 30-30 30v-241c33 0 60 27 60 60zm0 0" fill="#e63950"/><path d="m135 346v151h-30v-166h15c8.402344 0 15 6.597656 15 15zm0 0" fill="#293939"/><path d="m120 196c0 8.402344-6.597656 15-15 15v-30c8.402344 0 15 6.597656 15 15zm0 0" fill="#5bc980"/><path d="m120 136c0 8.402344-6.597656 15-15 15v-30c8.402344 0 15 6.597656 15 15zm0 0" fill="#eebf00"/><path d="m105 91v-30c8.402344 0 15 6.597656 15 15s-6.597656 15-15 15zm0 0" fill="#e63950"/><path d="m512 497c0 8.402344-6.597656 15-15 15h-482c-8.402344 0-15-6.597656-15-15s6.597656-15 15-15h482c8.402344 0 15 6.597656 15 15zm0 0" fill="#c5d3dd"/><path d="m512 497c0 8.402344-6.597656 15-15 15h-392v-30h392c8.402344 0 15 6.597656 15 15zm0 0" fill="#9facba"/></svg>