<svg height="496pt" viewBox="0 0 496 496" width="496pt" xmlns="http://www.w3.org/2000/svg"><path d="m472 304h-32v56h-112v-56h-32c-13.257812 0-24 10.742188-24 24v45.449219c0 9.597656 5.71875 18.277343 14.542969 22.0625l41.457031 17.761719v50.726562c0 17.671875 14.328125 32 32 32h48c17.671875 0 32-14.328125 32-32v-50.726562l41.457031-17.761719c8.824219-3.785157 14.542969-12.457031 14.542969-22.054688v-45.457031c0-13.257812-10.742188-24-24-24zm-72 152h-32v-48h32zm0 0" fill="#f0bc5e"/><path d="m400 304h16v16h-16zm0 0"/><path d="m408 464h-48v-64h48zm-32-16h16v-32h-16zm0 0"/><path d="m48 216v88h16v-88c0-42.632812 16.054688-83.3125 45.207031-114.535156l-11.6875-10.921875c-31.933593 34.199219-49.519531 78.753906-49.519531 125.457031zm0 0"/><path d="m400 288h16v-72c0-32.328125-8.535156-64.152344-24.695312-92.015625l-13.839844 8.03125c14.734375 25.433594 22.535156 54.472656 22.535156 83.984375zm0 0"/><path d="m448 352v-136c0-119.105469-96.894531-216-216-216s-216 96.894531-216 216v112h16v-112c0-84.65625 52.894531-157.144531 127.351562-186.289062-19.3125 18.898437-31.351562 45.199218-31.351562 74.289062v224h16v-216h176v240h-16v16h160v-16zm-216-336c45.824219 0 83.535156 35.214844 87.59375 80h-175.1875c4.058594-44.785156 41.769531-80 87.59375-80zm72.648438 13.710938c74.457031 29.144531 127.351562 101.632812 127.351562 186.289062v136h-96v-248c0-29.089844-12.039062-55.390625-31.351562-74.289062zm0 0"/><path d="m136 496h-112c-13.230469 0-24-10.769531-24-24v-128c0-13.230469 10.769531-24 24-24h112c13.230469 0 24 10.769531 24 24v128c0 13.230469-10.769531 24-24 24zm0 0" fill="#f0bc5e"/><path d="m128 496h-16v-32h-64v32h-16v-48h96zm0 0"/><path d="m128 400h-96v-48h96zm-80-16h64v-16h-64zm0 0"/></svg>