<svg height="477.60001pt" viewBox="0 0 477.60001 477.60001" width="477.60001pt" xmlns="http://www.w3.org/2000/svg"><path d="m477.601562 238.800781c0 131.886719-106.914062 238.800781-238.800781 238.800781s-238.800781-106.914062-238.800781-238.800781 106.914062-238.800781 238.800781-238.800781 238.800781 106.914062 238.800781 238.800781zm0 0" fill="#382b73"/><path d="m445.398438 238.800781c0 114.101563-92.496094 206.597657-206.597657 206.597657-114.101562 0-206.597656-92.496094-206.597656-206.597657 0-114.101562 92.496094-206.597656 206.597656-206.597656 114.101563 0 206.597657 92.496094 206.597657 206.597656zm0 0" fill="#473080"/><g fill="#382b73"><path d="m269.421875 374.003906c-.214844-.332031-.492187-.632812-.835937-.886718l-35.664063-26.203126c-.554687-.40625-1.167969-.613281-1.777344-.652343-.1875-.011719-.375 0-.5625.019531-.21875.023438-.433593.070312-.644531.132812-.265625.082032-.519531.199219-.757812.34375-.179688.109376-.351563.226563-.507813.367188-.335937.300781-.613281.667969-.808594 1.085938-.191406.421874-.304687.898437-.304687 1.417968v21.828125c-17.753906-1.652343-34.40625-7.140625-49.128906-15.621093l25.765624-14.875v-67.949219l-58.847656-33.976563-58.851562 33.976563v67.949219l58.851562 33.976562 16.222656-9.367188c19.585938 13.21875 42.175782 21.148438 65.992188 23.066407v13.394531c0 2.761719 3.136719 4.347656 5.359375 2.714844l31.59375-23.210938 4.070313-2.992187c.34375-.25.621093-.554688.839843-.886719.140625-.21875.257813-.453125.34375-.695312.257813-.730469.257813-1.53125 0-2.261719-.089843-.238281-.203125-.472657-.347656-.695313zm0 0"/><path d="m111.339844 195.949219c-.121094.273437-.242188.546875-.359375.824219l.421875-.25.785156 7.105468.269531 2.46875.664063 6c.109375.988282.621094 1.804688 1.34375 2.335938.71875.53125 1.640625.773437 2.566406.617187.265625-.046875.53125-.125.789062-.238281l40.523438-17.785156c2.210938-.96875 2.636719-3.78125 1.105469-5.390625-.21875-.230469-.476563-.433594-.773438-.605469l-18.863281-10.890625c16.597656-23.328125 41.21875-40.570313 69.800781-47.667969l-31.90625 55.257813 61.195313 35.332031 61.195312-35.332031-61.195312-105.992188-18.019532 31.210938c-30.207031 3.898437-58.132812 17.558593-80.023437 39.449219-5.953125 5.953124-11.285156 12.351562-15.984375 19.117187l-11.582031-6.6875c-2.390625-1.378906-5.335938.542969-5.03125 3.285156zm0 0"/><path d="m395.246094 308.644531c-.003906-.128906-.007813-.257812-.011719-.386719-.035156-.734374-.082031-1.464843-.140625-2.195312-.007812-.117188-.019531-.234375-.03125-.355469-.136719-1.550781-.335938-3.085937-.59375-4.597656-.007812-.050781-.015625-.101563-.023438-.152344-.132812-.765625-.28125-1.527343-.441406-2.28125-.011718-.046875-.023437-.09375-.03125-.140625-2.589844-11.9375-8.839844-22.507812-17.515625-30.480468.730469-5.796876 1.105469-11.675782 1.105469-17.613282 0-20.851562-4.578125-41.003906-13.25-59.308594l11.546875-6.664062c2.386719-1.378906 2.195313-4.890625-.332031-6l-40.519532-17.78125c-.390624-.171875-.792968-.261719-1.1875-.285156-.390624-.019532-.78125.03125-1.148437.144531-.242187.078125-.480469.179687-.703125.308594-.109375.0625-.214844.132812-.320312.207031-.714844.53125-1.234376 1.347656-1.34375 2.335938l-1.617188 14.664062-3.242188 29.324219c-.074218.683593.050782 1.320312.324219 1.863281.203125.40625.484375.765625.824219 1.054688.273438.234374.582031.417968.914062.554687.183594.078125.375.140625.570313.183594.058594.011719.113281.023437.171875.035156.722656.121094 1.5.011719 2.226562-.40625l18.890626-10.910156c7.109374 15.433593 11.082031 32.601562 11.082031 50.679687 0 2.375-.070313 4.730469-.207031 7.074219-7.097657-3.078125-14.921876-4.792969-23.148438-4.792969-27.890625 0-51.199219 19.621094-56.878906 45.8125-.007813.046875-.019532.09375-.027344.140625-.164062.753907-.3125 1.515625-.445312 2.28125-.007813.050781-.015626.101563-.023438.152344-.257812 1.511719-.453125 3.046875-.59375 4.597656-.007812.117188-.019531.238281-.03125.355469-.058594.730469-.109375 1.460938-.140625 2.195312-.003906.128907-.007813.257813-.011719.386719-.03125.757813-.050781 1.519531-.050781 2.289063 0 2.007812.101563 3.992187.300781 5.949218.101563.980469.222656 1.953126.371094 2.914063.074219.480469.152344.960937.238281 1.4375.167969.957031.363281 1.902344.582031 2.84375.433594 1.878906.957032 3.71875 1.566407 5.523437.761719 2.253907 1.660156 4.445313 2.683593 6.566407.203126.425781.414063.847656.628907 1.265625.640625 1.253906 1.328125 2.480468 2.054687 3.683594.972656 1.597656 2.023438 3.148437 3.136719 4.644531 3.351563 4.480469 7.335937 8.464843 11.816406 11.816406 1.496094 1.117187 3.042969 2.164063 4.644531 3.136719 1.199219.730468 2.429688 1.414062 3.683594 2.058594.417969.210937.839844.421874 1.265625.625 2.117188 1.023437 4.3125 1.917968 6.566407 2.683593 1.800781.609375 3.644531 1.132813 5.523437 1.566407.9375.21875 1.886719.410156 2.839844.582031.480469.085937.960937.164062 1.441406.238281.964844.148438 1.933594.269531 2.914063.371094 1.957031.199218 3.941406.300781 5.953124.300781 2.007813 0 3.992188-.101563 5.949219-.300781.980469-.101563 1.953125-.222656 2.914063-.371094 3.375-.515625 6.648437-1.320312 9.804687-2.386719 5.859375-1.984375 11.300781-4.875 16.160157-8.507812 1.117187-.835938 2.207031-1.714844 3.265624-2.628907 1.40625-1.21875 2.757813-2.503906 4.039063-3.851562.324219-.339844.640625-.679688.953125-1.023438 2.507812-2.757812 4.75-5.753906 6.695312-8.953124.242188-.402344.480469-.804688.714844-1.210938 1.398438-2.4375 2.628906-4.984375 3.671875-7.628906.175781-.441406.34375-.886719.507813-1.332032.324218-.890624.628906-1.792968.914062-2.703124.425782-1.367188.800782-2.757813 1.125-4.164063.542969-2.347656.941406-4.75 1.191406-7.195313.195313-1.953124.296876-3.941406.296876-5.949218-.007813-.769532-.027344-1.53125-.058594-2.289063zm0 0"/></g><path d="m122.050781 178.238281 6.054688 10.257813c19.085937-42.179688 61.570312-71.59375 110.796875-71.59375 4.378906 0 8.703125.238281 12.964844.691406v-17.203125c-4.28125-.394531-8.605469-.601563-12.964844-.601563-37.035156 0-71.855469 14.421876-98.042969 40.609376-12.9375 12.941406-23 27.992187-29.875 44.375zm0 0" fill="#fff"/><path d="m245.457031 371.488281 6.386719-12.191406c-4.25.453125-8.566406.691406-12.941406.691406-59.800782 0-109.648438-43.417969-119.691406-100.382812l-15.640626 9.230469c5.660157 25.433593 18.417969 48.785156 37.289063 67.652343 26.1875 26.191407 61.007813 40.613281 98.042969 40.613281 5.253906 0 10.457031-.300781 15.601562-.871093zm0 0" fill="#fff"/><path d="m350.386719 155.953125v12.304687h-12.308594c14.078125 19.839844 22.367187 44.0625 22.367187 70.183594 0 38.800782-18.28125 73.414063-46.675781 95.683594l16.476563 8.632812c2.289062-2.011718 4.527344-4.097656 6.703125-6.273437 26.1875-26.1875 40.609375-61.007813 40.609375-98.042969 0-30.105468-9.53125-58.753906-27.171875-82.488281zm0 0" fill="#fff"/><path d="m348.464844 168.261719h-10.386719c14.078125 19.835937 22.367187 44.058593 22.367187 70.183593 0 38.800782-18.28125 73.414063-46.675781 95.679688l8.308594 4.355469c28.667969-23.863281 46.925781-59.816407 46.925781-100.035157 0-25.847656-7.542968-49.9375-20.539062-70.183593zm0 0" fill="#d0d2d3"/><path d="m251.84375 359.296875c-4.253906.449219-8.570312.6875-12.941406.6875-59.800782 0-109.652344-43.414063-119.695313-100.378906l-7.84375 4.628906c11.964844 59.496094 64.515625 104.308594 127.539063 104.308594 2.765625 0 5.507812-.097657 8.234375-.265625zm0 0" fill="#d0d2d3"/><path d="m128.105469 188.496094c19.085937-42.179688 61.570312-71.59375 110.796875-71.59375 4.378906 0 8.703125.238281 12.964844.691406v-8.609375c-4.261719-.421875-8.585938-.640625-12.964844-.640625-50.667969 0-94.570313 28.96875-116.050782 71.25zm0 0" fill="#d0d2d3"/><path d="m227.5625 390.035156v-52.402344c0-2.761718 3.136719-4.347656 5.359375-2.714843l35.664063 26.203125c1.828124 1.34375 1.828124 4.082031 0 5.425781l-35.664063 26.203125c-2.222656 1.632812-5.359375.042969-5.359375-2.714844zm0 0" fill="#fff"/><path d="m232.921875 346.328125 31.59375 23.210937 4.070313-2.992187c1.832031-1.347656 1.832031-4.082031 0-5.429687l-35.660157-26.203126c-2.226562-1.632812-5.363281-.042968-5.363281 2.714844v11.410156c0-2.757812 3.136719-4.34375 5.359375-2.710937zm0 0" fill="#d0d2d3"/><path d="m375.855469 172.472656-45.382813 26.203125c-2.390625 1.378907-5.335937-.542969-5.03125-3.289062l4.859375-43.984375c.25-2.257813 2.621094-3.625 4.703125-2.714844l40.519532 17.785156c2.527343 1.109375 2.71875 4.621094.332031 6zm0 0" fill="#fff"/><path d="m341.6875 151.621094-6.6875-2.933594c-2.078125-.914062-4.449219.453125-4.699219 2.714844l-4.859375 43.984375c-.304687 2.742187 2.636719 4.667969 5.027344 3.289062l6.425781-3.710937zm0 0" fill="#d0d2d3"/><path d="m113.292969 152.828125 45.382812 26.203125c2.390625 1.378906 2.195313 4.890625-.328125 6l-40.523437 17.78125c-2.082031.914062-4.449219-.453125-4.699219-2.710938l-4.859375-43.988281c-.304687-2.742187 2.636719-4.664062 5.027344-3.285156zm0 0" fill="#fff"/><path d="m158.675781 179.027344-8.3125-4.800782c-.339843.550782-.839843 1.015626-1.507812 1.308594l-36.667969 16.09375.9375 8.46875c.25 2.257813 2.617188 3.625 4.699219 2.714844l40.523437-17.785156c2.523438-1.105469 2.714844-4.621094.328125-6zm0 0" fill="#d0d2d3"/><path d="m177.707031 175.730469 61.195313-105.992188v141.324219zm0 0" fill="#fddd3a"/><path d="m238.902344 69.738281 61.195312 105.992188-61.195312 35.332031zm0 0" fill="#fff235"/><path d="m300.097656 175.730469-61.195312-35.332031-61.195313 35.332031 61.195313 35.332031zm0 0" fill="#f6ca14"/><path d="m346.464844 241.496094c-31.722656-5.191406-61.648438 16.3125-66.84375 48.035156-5.195313 31.71875 16.308594 61.648438 48.03125 66.84375 31.722656 5.191406 61.648437-16.3125 66.84375-48.035156 5.195312-31.71875-16.308594-61.648438-48.03125-66.84375zm0 0" fill="#1cade3"/><path d="m337.089844 318.546875c-25.382813 0-46.964844-16.246094-54.925782-38.910156-2.121093 6.039062-3.28125 12.53125-3.28125 19.292969 0 32.144531 26.0625 58.207031 58.207032 58.207031 32.144531 0 58.207031-26.0625 58.207031-58.207031 0-6.765626-1.160156-13.253907-3.277344-19.292969-7.960937 22.664062-29.546875 38.910156-54.929687 38.910156zm0 0" fill="#0099dc"/><path d="m86.496094 261.011719v67.953125l58.851562 33.976562 58.847656-33.976562v-67.953125l-58.847656-33.976563zm0 0" fill="#ee5a9c"/><path d="m204.195312 328.964844-58.847656-33.976563-58.851562 33.976563 58.851562 33.976562zm0 0" fill="#e43c90"/><path d="m145.347656 294.988281v-67.953125l58.847656 33.976563v67.953125zm0 0" fill="#ef6ea8"/></svg>